<svg xmlns="http://www.w3.org/2000/svg" version="1.1" xmlns:xlink="http://www.w3.org/1999/xlink" xmlns:svgjs="http://svgjs.dev/svgjs" width="1000" height="1165" viewBox="0 0 1000 1165"><g transform="matrix(1,0,0,1,0.6553447787437108,0.47165991902829774)"><svg viewBox="0 0 212 247" data-background-color="#50a060" preserveAspectRatio="xMidYMid meet" height="1165" width="1000" xmlns="http://www.w3.org/2000/svg" xmlns:xlink="http://www.w3.org/1999/xlink"><g id="tight-bounds" transform="matrix(1,0,0,1,-0.1389330930936694,-0.09999999999999432)"><svg viewBox="0 0 212.27785229747226 247.2" height="247.2" width="212.27785229747226"><g><svg viewBox="0 0 395.5199999999999 460.58758811535336" height="247.2" width="212.27785229747226"><g transform="matrix(1,0,0,1,0,261.49055062303626)"><svg viewBox="0 0 395.5199999999999 199.09703749231713" height="199.09703749231713" width="395.5199999999999"><g id="textblocktransform"><svg viewBox="0 0 395.5199999999999 199.09703749231713" height="199.09703749231713" width="395.5199999999999" id="textblock"><g><svg viewBox="0 0 395.5199999999999 199.09703749231713" height="199.09703749231713" width="395.5199999999999"><g transform="matrix(1,0,0,1,0,0)"><svg width="395.5199999999999" viewBox="1.5099999904632568 -37.7400016784668 79.43999481201172 39.9900016784668" height="199.09703749231713" data-palette-color="#454545"><path d="M34.52-11.57L34.52-11.57 34.47-3.96Q32.23-3.52 30.03-3.13 27.83-2.73 25.59-2.44L25.59-2.44Q23.24-2.15 20.9-1.9 18.55-1.66 16.21-1.66L16.21-1.66Q15.53-1.66 14.21-1.71 12.89-1.76 11.47-1.9 10.06-2.05 8.79-2.27 7.52-2.49 6.93-2.83L6.93-2.83Q6.4-3.17 5.91-3.64 5.42-4.1 5.03-4.59L5.03-4.59Q4-5.86 3.32-7.37 2.64-8.89 2.25-10.5 1.86-12.11 1.68-13.77 1.51-15.43 1.51-17.04L1.51-17.04Q1.51-18.99 1.73-21.09 1.95-23.19 2.44-25.24 2.93-27.29 3.74-29.2 4.54-31.1 5.71-32.71L5.71-32.71Q6.05-33.15 6.59-33.79 7.13-34.42 7.67-34.72L7.67-34.72Q8.98-35.45 10.62-35.94 12.26-36.43 14.01-36.69 15.77-36.96 17.5-37.08 19.24-37.21 20.7-37.21L20.7-37.21Q23.49-37.21 26.27-36.89 29.05-36.57 31.69-35.79L31.69-35.79Q31.59-34.47 31.54-33.13 31.49-31.79 31.49-30.47L31.49-30.47Q31.49-27.29 31.64-24.07L31.64-24.07Q29.44-24.9 27.05-25.27 24.66-25.63 22.31-25.63L22.31-25.63Q21.83-25.63 20.9-25.56 19.97-25.49 18.8-25.37 17.63-25.24 16.38-25.05 15.14-24.85 14.06-24.56 12.99-24.27 12.18-23.88 11.38-23.49 11.13-23.05L11.13-23.05Q10.94-22.66 10.82-21.95 10.69-21.24 10.62-20.46 10.55-19.68 10.52-18.95 10.5-18.21 10.5-17.77L10.5-17.77Q10.5-17.33 10.6-16.02 10.69-14.7 10.84-13.21 10.99-11.72 11.21-10.5 11.43-9.28 11.67-9.08L11.67-9.08Q11.91-8.94 12.48-8.91 13.04-8.89 13.23-8.89L13.23-8.89Q15.63-8.89 18.36-9.13 21.09-9.38 23.9-9.79 26.71-10.21 29.44-10.67 32.18-11.13 34.52-11.57ZM80.95-1.37L80.95 0.83Q80.03 0.78 79.15 0.68L79.15 0.68Q78.42 0.59 77.71 0.54 77 0.49 76.66 0.49L76.66 0.49Q74.75 0.49 72.85 0.56 70.94 0.63 69.09 0.83L69.09 0.83Q69.14-1.22 69.16-3.2 69.19-5.18 69.19-7.23L69.19-7.23Q69.19-10.89 69.06-14.5 68.94-18.12 68.85-21.73L68.85-21.73 58.59 1.46Q56.35-4.64 53.78-10.52 51.22-16.41 48.44-22.27L48.44-22.27 49.22 1.86Q48.68 1.86 48.12 1.83 47.56 1.81 46.97 1.81L46.97 1.81Q45.11 1.81 43.33 1.95 41.55 2.1 39.74 2.25L39.74 2.25Q39.99-2.29 40.23-6.79 40.48-11.28 40.48-15.82L40.48-15.82Q40.48-21.14 40.4-26.42 40.33-31.69 40.28-37.01L40.28-37.01Q43.8-37.01 47.14-37.21 50.49-37.4 54-37.74L54-37.74Q55.17-33.84 56.42-30 57.66-26.17 59.08-22.36L59.08-22.36Q60.59-25.98 62.52-29.44 64.45-32.91 66.45-36.33L66.45-36.33Q69.77-36.43 73.02-36.52 76.27-36.62 79.59-36.67L79.59-36.67Q79.73-32.28 79.95-27.98 80.17-23.68 80.37-19.29L80.37-19.29Q80.52-15.82 80.64-12.35 80.76-8.89 80.86-5.47L80.86-5.47 80.95-1.37Z" opacity="1" transform="matrix(1,0,0,1,0,0)" fill="#454545" class="wordmark-text-0" data-fill-palette-color="primary" id="text-0"></path></svg></g></svg></g></svg></g></svg></g><g transform="matrix(1,0,0,1,90.51574079999997,0)"><svg viewBox="0 0 214.48851839999998 214.48851839999998" height="214.48851839999998" width="214.48851839999998"><g><svg></svg></g><g id="icon-0"><svg viewBox="0 0 214.48851839999998 214.48851839999998" height="214.48851839999998" width="214.48851839999998"><g><rect width="195.02567136" height="195.02567136" x="9.731423519999993" y="9.731423519999993" fill="#454545" data-fill-palette-color="accent"></rect><rect width="195.02567136" height="195.02567136" x="-5.329070518200751e-15" y="19.462847039999993" fill="#454545" opacity="0.5" data-fill-palette-color="accent"></rect></g><g transform="matrix(1,0,0,1,27.80406719999999,48.24331641325692)"><svg viewBox="0 0 158.880384 118.00188557348613" height="118.00188557348613" width="158.880384"><g><svg xmlns="http://www.w3.org/2000/svg" xmlns:xlink="http://www.w3.org/1999/xlink" version="1.1" x="0" y="0" viewBox="7.5 18.434999465942383 85.0009994506836 63.131004333496094" enable-background="new 0 0 100 100" xml:space="preserve" height="118.00188557348613" width="158.880384" class="icon-s-0" data-fill-palette-color="background" id="s-0"><g fill="#50a060" data-fill-palette-color="background"><path d="M89.405 18.435H10.595c-1.706 0-3.095 1.389-3.095 3.095v56.941c0 1.706 1.389 3.095 3.095 3.095h78.811c1.707 0 3.095-1.389 3.095-3.095V77.14 32.027 21.529C92.5 19.823 91.112 18.435 89.405 18.435zM10.595 19.673h78.811c1.023 0 1.857 0.833 1.857 1.856v9.075c-0.068-0.01-0.136-0.021-0.207-0.021H8.951c-0.073 0-0.143 0.011-0.213 0.021v-9.076C8.738 20.506 9.571 19.673 10.595 19.673zM91.263 77.14c0 0.114-0.093 0.206-0.207 0.206H8.951c-0.113 0-0.206-0.092-0.206-0.206V32.027c0-0.113 0.093-0.206 0.206-0.206h82.104c0.114 0 0.207 0.093 0.207 0.206V77.14zM89.405 80.327H10.595c-0.992 0-1.798-0.784-1.848-1.764 0.067 0.01 0.135 0.021 0.204 0.021h82.104c0.068 0 0.133-0.011 0.197-0.02C91.202 79.544 90.396 80.327 89.405 80.327z" fill="#50a060" data-fill-palette-color="background"></path><path d="M28.178 27.787c1.45 0 2.63-1.18 2.63-2.63 0-1.451-1.18-2.631-2.63-2.631s-2.631 1.18-2.631 2.631C25.547 26.607 26.728 27.787 28.178 27.787zM28.178 23.765c0.768 0 1.393 0.624 1.393 1.393 0 0.768-0.625 1.393-1.393 1.393-0.769 0-1.393-0.625-1.393-1.393C26.785 24.389 27.409 23.765 28.178 23.765z" fill="#50a060" data-fill-palette-color="background"></path><path d="M21.458 27.787c1.451 0 2.631-1.18 2.631-2.63 0-1.451-1.18-2.631-2.631-2.631-1.45 0-2.63 1.18-2.63 2.631C18.828 26.607 20.008 27.787 21.458 27.787zM21.458 23.765c0.769 0 1.393 0.624 1.393 1.393 0 0.768-0.624 1.393-1.393 1.393-0.768 0-1.393-0.625-1.393-1.393C20.065 24.389 20.69 23.765 21.458 23.765z" fill="#50a060" data-fill-palette-color="background"></path><path d="M14.738 27.787c1.451 0 2.631-1.18 2.631-2.63 0-1.451-1.18-2.631-2.631-2.631-1.45 0-2.63 1.18-2.63 2.631C12.108 26.607 13.288 27.787 14.738 27.787zM14.738 23.765c0.769 0 1.393 0.624 1.393 1.393 0 0.768-0.624 1.393-1.393 1.393-0.768 0-1.393-0.625-1.393-1.393C13.346 24.389 13.971 23.765 14.738 23.765z" fill="#50a060" data-fill-palette-color="background"></path></g><path d="M26.598 65.915c-0.624 0-1.395-0.429-2.289-1.276-1.605-1.519-2.16-2.371-1.2-3.405l8.79-8.811-8.774-8.782c-0.676-0.676-0.57-1.195-0.401-1.57 0.242-0.544 0.814-1.117 1.479-1.781 0.829-0.829 1.542-1.542 2.241-1.542 0.342 0 0.679 0.172 1.033 0.526l11.769 11.755c0.311 0.254 0.521 0.659 0.564 1.134 0.048 0.537-0.134 1.152-0.452 1.533L27.53 65.514C27.243 65.787 26.941 65.915 26.598 65.915zM23.846 42.57c-0.009 0 0.027 0.068 0.154 0.194l9.211 9.221c0.241 0.242 0.241 0.633 0 0.875L24 62.093c-0.093 0.1-0.125 0.147-0.133 0.166 0.012 0.047 0.125 0.377 1.292 1.48 0.979 0.927 1.42 0.938 1.438 0.938v0.619l0.01-0.62c-0.001 0.001-0.001 0.001-0.001 0.001-0.003 0 0.02-0.012 0.061-0.05l11.777-11.767c0.061-0.077 0.151-0.357 0.131-0.589-0.013-0.145-0.063-0.246-0.162-0.328L26.601 40.148c-0.144-0.143-0.215-0.171-0.215-0.171-0.182 0.06-0.886 0.764-1.307 1.184-0.531 0.532-1.077 1.078-1.227 1.413C23.85 42.571 23.848 42.57 23.846 42.57z" fill="#50a060" data-fill-palette-color="background"></path><path d="M55.834 71.436H40.498c-1.594 0-1.92-1.234-1.92-3.088s0.326-3.088 1.92-3.088h15.336c1.503 0 1.787 1.085 1.787 3.088C57.621 70.396 57.346 71.436 55.834 71.436zM40.498 66.497c-0.366 0-0.683 0-0.683 1.851s0.316 1.851 0.683 1.851h15.336c0.354 0 0.55 0 0.55-1.851s-0.219-1.851-0.55-1.851H40.498z" fill="#50a060" data-fill-palette-color="background"></path></svg></g></svg></g></svg></g></svg></g><g></g></svg></g><defs></defs></svg><rect width="212.27785229747226" height="247.2" fill="none" stroke="none" visibility="hidden"></rect></g></svg></g></svg>